<svg width="100" height="100" viewBox="0 0 100 100" fill="none" xmlns="http://www.w3.org/2000/svg">
<path fill-rule="evenodd" clip-rule="evenodd" d="M0.779793 48.1096L48.1096 0.779793C49.1494 -0.259931 50.8506 -0.259931 51.8904 0.779793L99.2202 48.1096C100.26 49.1494 100.26 50.8506 99.2202 51.8904L51.8904 99.2202C50.8506 100.26 49.1494 100.26 48.1096 99.2202L0.779793 51.8904C-0.259931 50.8506 -0.259931 49.1494 0.779793 48.1096ZM2.90458 46.6191L49.9126 2.78345C50.8997 1.86295 52.4605 1.91746 53.3809 2.90455L97.2166 49.9126C98.1371 50.8997 98.0826 52.4604 97.0955 53.3809L50.0875 97.2166C49.1004 98.137 47.5396 98.0826 46.6191 97.0954L2.78347 50.0874C1.86301 49.1004 1.91749 47.5396 2.90458 46.6191Z" fill="black"/>
<path d="M33.9572 48.5359C34.0027 48.5359 34.0254 48.5813 34.0254 48.6722C34.0254 48.7631 34.0027 48.8086 33.9572 48.8086C33.4876 48.8086 33.1164 48.801 32.8437 48.7859L31.3211 48.7631L29.9122 48.7859C29.6849 48.801 29.3668 48.8086 28.9577 48.8086C28.9274 48.8086 28.9123 48.7631 28.9123 48.6722C28.9123 48.5813 28.9274 48.5359 28.9577 48.5359C29.488 48.5359 29.8743 48.498 30.1167 48.4223C30.3742 48.3314 30.5409 48.1799 30.6166 47.9678C30.7075 47.7557 30.7378 47.4224 30.7075 46.9679L30.3212 36.4008L25.0036 48.6495C24.9733 48.7101 24.9127 48.7404 24.8218 48.7404C24.746 48.7404 24.6778 48.7101 24.6172 48.6495L19.0724 36.4917L19.0496 36.4462L18.8678 46.4452C18.8527 47.233 18.9815 47.7784 19.2542 48.0814C19.5269 48.3844 20.0344 48.5359 20.7767 48.5359C20.807 48.5359 20.8222 48.5813 20.8222 48.6722C20.8222 48.7631 20.807 48.8086 20.7767 48.8086C20.3525 48.8086 20.0268 48.801 19.7996 48.7859L18.5724 48.7631L17.4589 48.7859C17.2619 48.801 16.9665 48.8086 16.5726 48.8086C16.5423 48.8086 16.5272 48.7631 16.5272 48.6722C16.5272 48.5813 16.5423 48.5359 16.5726 48.5359C17.2089 48.5359 17.6558 48.3844 17.9134 48.0814C18.1861 47.7632 18.33 47.2178 18.3452 46.4452L18.5724 35.6736C18.1028 35.1433 17.4892 34.8782 16.7317 34.8782C16.7014 34.8782 16.6862 34.8327 16.6862 34.7418C16.6862 34.6509 16.7014 34.6055 16.7317 34.6055L17.5043 34.6282C17.6558 34.6434 17.8528 34.6509 18.0952 34.6509C18.3376 34.6509 18.5421 34.6434 18.7088 34.6282C18.8754 34.6131 19.0042 34.6055 19.0951 34.6055C19.3072 34.6055 19.4738 34.6812 19.595 34.8327C19.7162 34.9691 19.898 35.2872 20.1404 35.7872L25.2535 46.8315L30.3439 35.1736C30.4197 35.007 30.5182 34.8706 30.6394 34.7646C30.7757 34.6585 30.9045 34.6055 31.0257 34.6055C31.0863 34.6055 31.1848 34.6131 31.3211 34.6282C31.4575 34.6434 31.6468 34.6509 31.8892 34.6509L32.9119 34.6282C33.0634 34.6131 33.2982 34.6055 33.6163 34.6055C33.6466 34.6055 33.6618 34.6509 33.6618 34.7418C33.6618 34.8327 33.6466 34.8782 33.6163 34.8782C32.8285 34.8782 32.268 34.9842 31.9347 35.1963C31.6165 35.3933 31.465 35.7948 31.4802 36.4008L31.912 46.9679C31.9271 47.4375 31.9801 47.7784 32.071 47.9905C32.1771 48.2026 32.3665 48.3465 32.6392 48.4223C32.927 48.498 33.3664 48.5359 33.9572 48.5359ZM48.8893 48.5359C48.9499 48.5359 48.9802 48.5813 48.9802 48.6722C48.9802 48.7631 48.9499 48.8086 48.8893 48.8086C48.6166 48.8086 48.1772 48.7934 47.5712 48.7631C46.9955 48.7328 46.5713 48.7177 46.2986 48.7177C45.9805 48.7177 45.5639 48.7328 45.0488 48.7631C44.564 48.7934 44.2004 48.8086 43.958 48.8086C43.8974 48.8086 43.8671 48.7631 43.8671 48.6722C43.8671 48.5813 43.8974 48.5359 43.958 48.5359C44.5791 48.5359 45.026 48.4829 45.2987 48.3768C45.5714 48.2556 45.7078 48.0587 45.7078 47.786C45.7078 47.5739 45.6245 47.2784 45.4578 46.8997L43.3217 42.2865H37.9131L36.3678 46.0134C36.1557 46.5285 36.0497 46.9527 36.0497 47.286C36.0497 47.7254 36.2315 48.0435 36.5951 48.2405C36.9587 48.4374 37.5268 48.5359 38.2994 48.5359C38.3752 48.5359 38.4131 48.5813 38.4131 48.6722C38.4131 48.7631 38.3752 48.8086 38.2994 48.8086C38.0267 48.8086 37.6329 48.7934 37.1178 48.7631C36.5421 48.7328 36.0421 48.7177 35.6179 48.7177C35.2392 48.7177 34.7922 48.7328 34.2771 48.7631C33.8226 48.7934 33.4515 48.8086 33.1636 48.8086C33.0879 48.8086 33.05 48.7631 33.05 48.6722C33.05 48.5813 33.0879 48.5359 33.1636 48.5359C33.5878 48.5359 33.9438 48.4601 34.2317 48.3086C34.5347 48.1571 34.815 47.8844 35.0725 47.4905C35.3452 47.0966 35.6331 46.5361 35.9361 45.8089L40.6856 34.3782C40.7159 34.3328 40.7613 34.3101 40.8219 34.3101C40.8977 34.3101 40.9431 34.3328 40.9583 34.3782L46.2305 45.6953C46.5789 46.4679 46.8895 47.0588 47.1622 47.4678C47.4349 47.8617 47.7 48.142 47.9576 48.3086C48.2303 48.4601 48.5408 48.5359 48.8893 48.5359ZM38.0949 41.8775H43.1171L40.4583 36.1735L38.0949 41.8775ZM58.3029 45.4907C58.3029 45.4453 58.3484 45.4301 58.4393 45.4453C58.5302 45.4453 58.5756 45.468 58.5756 45.5135C58.4393 46.4679 58.3711 47.4527 58.3711 48.4677C58.3711 48.5889 58.3408 48.6798 58.2802 48.7404C58.2347 48.7859 58.1438 48.8086 58.0075 48.8086H48.6221C48.5918 48.8086 48.5766 48.7631 48.5766 48.6722C48.5766 48.5813 48.5918 48.5359 48.6221 48.5359C49.2129 48.5359 49.6447 48.498 49.9174 48.4223C50.2053 48.3465 50.3946 48.2026 50.4855 47.9905C50.5916 47.7632 50.6446 47.4224 50.6446 46.9679V36.4462C50.6446 35.9917 50.5916 35.6584 50.4855 35.4463C50.3946 35.2342 50.2053 35.0903 49.9174 35.0145C49.6447 34.9236 49.2129 34.8782 48.6221 34.8782C48.5918 34.8782 48.5766 34.8327 48.5766 34.7418C48.5766 34.6509 48.5918 34.6055 48.6221 34.6055H57.6212C57.7575 34.6055 57.8257 34.6737 57.8257 34.81L57.8711 37.5597C57.8711 37.6052 57.8257 37.6279 57.7348 37.6279C57.659 37.6279 57.6212 37.6052 57.6212 37.5597C57.6212 36.7871 57.4166 36.1735 57.0076 35.719C56.5985 35.2645 56.0607 35.0373 55.3941 35.0373H53.8261C53.2504 35.0373 52.8262 35.0751 52.5535 35.1509C52.2808 35.2266 52.0914 35.3706 51.9854 35.5827C51.8945 35.7948 51.849 36.1281 51.849 36.5826V41.1957H54.8487C55.5456 41.1957 56.0304 41.0821 56.3031 40.8549C56.5758 40.6125 56.7122 40.2034 56.7122 39.6277C56.7122 39.5974 56.7576 39.5823 56.8485 39.5823C56.9394 39.5823 56.9849 39.5974 56.9849 39.6277L56.9621 41.423C56.9621 41.8623 56.9697 42.1881 56.9849 42.4002L57.0076 43.4682C57.0076 43.4985 56.9621 43.5137 56.8712 43.5137C56.7803 43.5137 56.7349 43.4985 56.7349 43.4682C56.7349 42.7865 56.591 42.3093 56.3031 42.0366C56.0153 41.7639 55.5077 41.6275 54.7805 41.6275H51.849V46.877C51.849 47.3163 51.8945 47.642 51.9854 47.8541C52.0914 48.0511 52.2732 48.1874 52.5308 48.2632C52.8035 48.3389 53.2352 48.3768 53.8261 48.3768H55.9168C56.5228 48.3768 57.0379 48.1117 57.4621 47.5814C57.9014 47.0512 58.1817 46.3543 58.3029 45.4907ZM61.5118 37.3552C61.5118 37.9612 61.6557 38.4839 61.9435 38.9232C62.2314 39.3626 62.5798 39.7338 62.9889 40.0368C63.4131 40.3246 63.9963 40.6882 64.7387 41.1276C65.5265 41.5972 66.1325 41.9911 66.5567 42.3093C66.996 42.6123 67.3672 43.0062 67.6702 43.491C67.9884 43.9758 68.1474 44.559 68.1474 45.2408C68.1474 45.9528 67.9732 46.6043 67.6248 47.1951C67.2763 47.7708 66.7536 48.2329 66.0567 48.5813C65.375 48.9146 64.5342 49.0813 63.5343 49.0813C63.004 49.0813 62.4965 49.0207 62.0117 48.8995C61.5421 48.7934 61.0194 48.5965 60.4437 48.3086C60.3679 48.2632 60.3149 48.2102 60.2846 48.1496C60.2695 48.089 60.2543 47.9981 60.2392 47.8769L59.8983 44.9226V44.8999C59.8983 44.8393 59.9362 44.809 60.0119 44.809C60.0877 44.7939 60.1331 44.8166 60.1483 44.8772C60.2998 45.9225 60.7012 46.8315 61.3527 47.6042C62.0041 48.3768 62.898 48.7631 64.0342 48.7631C64.8372 48.7631 65.5113 48.5435 66.0567 48.1041C66.6173 47.6648 66.8976 46.9754 66.8976 46.0361C66.8976 45.3544 66.7461 44.7711 66.4431 44.2863C66.1401 43.7864 65.7689 43.3773 65.3295 43.0592C64.9053 42.7259 64.3221 42.3396 63.5797 41.9002C62.8525 41.476 62.2768 41.1048 61.8526 40.7867C61.4436 40.4685 61.0876 40.0746 60.7846 39.605C60.4967 39.1202 60.3528 38.5445 60.3528 37.8779C60.3528 37.1204 60.5422 36.4765 60.9209 35.9463C61.3148 35.416 61.8223 35.0221 62.4435 34.7646C63.0646 34.4919 63.7312 34.3555 64.4433 34.3555C65.2765 34.3555 66.1401 34.5373 67.0339 34.9009C67.2612 34.9918 67.3748 35.1206 67.3748 35.2872L67.5793 37.6961C67.5793 37.7567 67.5339 37.787 67.443 37.787C67.3672 37.787 67.3218 37.7567 67.3066 37.6961C67.246 36.9083 66.9506 36.2038 66.4203 35.5827C65.8901 34.9615 65.1326 34.6509 64.1478 34.6509C63.2388 34.6509 62.5722 34.9161 62.148 35.4463C61.7238 35.9766 61.5118 36.6129 61.5118 37.3552ZM72.1323 34.9918C71.1778 34.9918 70.4809 35.2191 70.0416 35.6736C69.6022 36.1281 69.3068 36.9386 69.1553 38.1051C69.1553 38.1354 69.1099 38.1506 69.019 38.1506C68.9281 38.1506 68.8826 38.1354 68.8826 38.1051C68.9432 37.6961 69.0114 37.0446 69.0871 36.1508C69.1629 35.2418 69.2008 34.56 69.2008 34.1055C69.2008 34.0298 69.2462 33.9919 69.3371 33.9919C69.428 33.9919 69.4735 34.0298 69.4735 34.1055C69.4735 34.4388 69.8749 34.6055 70.6779 34.6055C71.9808 34.6509 73.5034 34.6737 75.2456 34.6737C76.1395 34.6737 77.0863 34.6585 78.0862 34.6282L79.6315 34.6055C80.1769 34.6055 80.5784 34.5676 80.836 34.4919C81.0935 34.4161 81.2602 34.2646 81.3359 34.0374C81.3511 33.9768 81.3965 33.9465 81.4723 33.9465C81.548 33.9465 81.5859 33.9768 81.5859 34.0374C81.5404 34.4616 81.495 35.113 81.4495 35.9917C81.4041 36.8553 81.3814 37.5597 81.3814 38.1051C81.3814 38.1354 81.3359 38.1506 81.245 38.1506C81.1541 38.1506 81.1087 38.1354 81.1087 38.1051C81.1087 37.3022 81.0253 36.681 80.8587 36.2417C80.692 35.8023 80.4118 35.4842 80.0179 35.2872C79.624 35.0903 79.071 34.9918 78.3589 34.9918C77.5711 34.9918 77.0182 35.0221 76.7 35.0827C76.3819 35.1282 76.1622 35.2494 76.041 35.4463C75.9349 35.6433 75.8819 35.9917 75.8819 36.4917V46.9679C75.8819 47.4375 75.9349 47.7784 76.041 47.9905C76.147 48.2026 76.3591 48.3465 76.6773 48.4223C76.9954 48.498 77.4954 48.5359 78.1771 48.5359C78.2074 48.5359 78.2226 48.5813 78.2226 48.6722C78.2226 48.7631 78.2074 48.8086 78.1771 48.8086C77.6772 48.8086 77.2833 48.801 76.9954 48.7859L75.2456 48.7631L73.5867 48.7859C73.2837 48.801 72.8671 48.8086 72.3368 48.8086C72.3065 48.8086 72.2914 48.7631 72.2914 48.6722C72.2914 48.5813 72.3065 48.5359 72.3368 48.5359C73.0186 48.5359 73.5185 48.498 73.8367 48.4223C74.1548 48.3465 74.3669 48.2026 74.473 47.9905C74.5942 47.7632 74.6548 47.4224 74.6548 46.9679V36.4462C74.6548 35.9463 74.5942 35.6054 74.473 35.4236C74.3518 35.2266 74.1321 35.1054 73.8139 35.06C73.5109 35.0145 72.9504 34.9918 72.1323 34.9918Z" fill="black"/>
<path d="M34.0847 66.3181C34.1302 66.3181 34.1529 66.3636 34.1529 66.4545C34.1529 66.5454 34.1302 66.5908 34.0847 66.5908H31.4486C31.0699 66.5908 30.3351 65.9621 29.2443 64.7046C28.1687 63.4321 26.8809 61.6898 25.3811 59.4779C24.8508 59.584 24.3736 59.637 23.9494 59.637C23.8888 59.637 23.5631 59.6143 22.9722 59.5688V64.7501C22.9722 65.2197 23.0177 65.5606 23.1086 65.7727C23.2146 65.9848 23.404 66.1287 23.6767 66.2045C23.9494 66.2802 24.3887 66.3181 24.9947 66.3181C25.0402 66.3181 25.0629 66.3636 25.0629 66.4545C25.0629 66.5454 25.0402 66.5908 24.9947 66.5908C24.5402 66.5908 24.1766 66.5832 23.9039 66.5681L22.3586 66.5454L20.8588 66.5681C20.5861 66.5832 20.2074 66.5908 19.7226 66.5908C19.6923 66.5908 19.6771 66.5454 19.6771 66.4545C19.6771 66.3636 19.6923 66.3181 19.7226 66.3181C20.3286 66.3181 20.7679 66.2802 21.0406 66.2045C21.3285 66.1287 21.5254 65.9848 21.6315 65.7727C21.7375 65.5455 21.7905 65.2046 21.7905 64.7501V54.2284C21.7905 53.7739 21.7375 53.4406 21.6315 53.2285C21.5406 53.0164 21.3512 52.8725 21.0633 52.7968C20.7906 52.7059 20.3589 52.6604 19.768 52.6604C19.7226 52.6604 19.6998 52.615 19.6998 52.5241C19.6998 52.4332 19.7226 52.3877 19.768 52.3877L20.8588 52.4104C21.4648 52.4407 21.9648 52.4559 22.3586 52.4559C22.6919 52.4559 23.0025 52.4483 23.2904 52.4332C23.5934 52.418 23.8509 52.4029 24.063 52.3877C24.6084 52.3423 25.0932 52.3195 25.5174 52.3195C26.6537 52.3195 27.5324 52.5998 28.1535 53.1604C28.7898 53.7058 29.108 54.433 29.108 55.342C29.108 56.1449 28.8656 56.8797 28.3808 57.5463C27.896 58.1977 27.2521 58.7128 26.4491 59.0916C27.752 60.9399 28.8428 62.3791 29.7215 63.4093C30.6002 64.4395 31.3805 65.1819 32.0622 65.6364C32.744 66.0909 33.4181 66.3181 34.0847 66.3181ZM22.9722 59.0461C23.3964 59.0916 23.8509 59.1143 24.3357 59.1143C25.5932 59.1143 26.487 58.8568 27.0173 58.3417C27.5627 57.8114 27.8354 57.016 27.8354 55.9555C27.8354 54.789 27.5475 53.9406 26.9718 53.4103C26.4113 52.8801 25.5932 52.615 24.5175 52.615C23.9418 52.615 23.5403 52.721 23.3131 52.9331C23.0858 53.1452 22.9722 53.5921 22.9722 54.2739V59.0461ZM39.7686 66.8635C38.3597 66.8635 37.1022 66.5378 35.9963 65.8863C34.9055 65.2197 34.0571 64.3259 33.4511 63.2048C32.8602 62.0686 32.5648 60.8338 32.5648 59.5006C32.5648 57.9402 32.9587 56.607 33.7465 55.501C34.5343 54.3799 35.5418 53.5391 36.7689 52.9786C38.0112 52.418 39.2763 52.1377 40.564 52.1377C42.0033 52.1377 43.2683 52.4786 44.3591 53.1604C45.4499 53.827 46.2831 54.7132 46.8588 55.8192C47.4497 56.9251 47.7451 58.0993 47.7451 59.3416C47.7451 60.7202 47.3815 61.9852 46.6543 63.1366C45.9271 64.288 44.9499 65.197 43.7228 65.8636C42.5108 66.5302 41.1927 66.8635 39.7686 66.8635ZM40.5867 66.409C41.6624 66.409 42.632 66.159 43.4955 65.6591C44.3591 65.1591 45.0408 64.4244 45.5408 63.4548C46.0407 62.4852 46.2907 61.3262 46.2907 59.9779C46.2907 58.5538 46.0104 57.2887 45.4499 56.1828C44.9045 55.0617 44.1242 54.1906 43.1092 53.5694C42.1093 52.9483 40.9428 52.6377 39.6096 52.6377C37.8522 52.6377 36.4811 53.1831 35.4963 54.2739C34.5116 55.3647 34.0192 56.8494 34.0192 58.728C34.0192 60.1369 34.2919 61.4323 34.8373 62.614C35.3979 63.7805 36.1781 64.7046 37.178 65.3864C38.1779 66.0681 39.3141 66.409 40.5867 66.409ZM55.8039 66.8635C54.395 66.8635 53.1375 66.5378 52.0316 65.8863C50.9408 65.2197 50.0924 64.3259 49.4864 63.2048C48.8955 62.0686 48.6001 60.8338 48.6001 59.5006C48.6001 57.9402 48.994 56.607 49.7818 55.501C50.5696 54.3799 51.5771 53.5391 52.8042 52.9786C54.0465 52.418 55.3116 52.1377 56.5993 52.1377C58.0386 52.1377 59.3036 52.4786 60.3944 53.1604C61.4852 53.827 62.3184 54.7132 62.8941 55.8192C63.485 56.9251 63.7804 58.0993 63.7804 59.3416C63.7804 60.7202 63.4168 61.9852 62.6896 63.1366C61.9624 64.288 60.9852 65.197 59.7581 65.8636C58.5461 66.5302 57.228 66.8635 55.8039 66.8635ZM56.622 66.409C57.6977 66.409 58.6673 66.159 59.5308 65.6591C60.3944 65.1591 61.0761 64.4244 61.5761 63.4548C62.076 62.4852 62.326 61.3262 62.326 59.9779C62.326 58.5538 62.0457 57.2887 61.4852 56.1828C60.9398 55.0617 60.1595 54.1906 59.1445 53.5694C58.1446 52.9483 56.9781 52.6377 55.6449 52.6377C53.8875 52.6377 52.5164 53.1831 51.5316 54.2739C50.5469 55.3647 50.0545 56.8494 50.0545 58.728C50.0545 60.1369 50.3272 61.4323 50.8726 62.614C51.4332 63.7805 52.2134 64.7046 53.2133 65.3864C54.2132 66.0681 55.3494 66.409 56.622 66.409ZM81.8609 66.3181C81.9064 66.3181 81.9291 66.3636 81.9291 66.4545C81.9291 66.5454 81.9064 66.5908 81.8609 66.5908C81.3913 66.5908 81.0201 66.5832 80.7474 66.5681L79.2248 66.5454L77.8159 66.5681C77.5886 66.5832 77.2705 66.5908 76.8614 66.5908C76.8311 66.5908 76.816 66.5454 76.816 66.4545C76.816 66.3636 76.8311 66.3181 76.8614 66.3181C77.3917 66.3181 77.778 66.2802 78.0204 66.2045C78.278 66.1136 78.4446 65.9621 78.5204 65.75C78.6113 65.5379 78.6416 65.2046 78.6113 64.7501L78.2249 54.183L72.9073 66.4317C72.877 66.4923 72.8164 66.5226 72.7255 66.5226C72.6498 66.5226 72.5816 66.4923 72.521 66.4317L66.9761 54.2739L66.9534 54.2284L66.7716 64.2274C66.7564 65.0152 66.8852 65.5606 67.1579 65.8636C67.4306 66.1666 67.9381 66.3181 68.6805 66.3181C68.7108 66.3181 68.7259 66.3636 68.7259 66.4545C68.7259 66.5454 68.7108 66.5908 68.6805 66.5908C68.2563 66.5908 67.9305 66.5832 67.7033 66.5681L66.4761 66.5454L65.3626 66.5681C65.1657 66.5832 64.8702 66.5908 64.4763 66.5908C64.446 66.5908 64.4309 66.5454 64.4309 66.4545C64.4309 66.3636 64.446 66.3181 64.4763 66.3181C65.1126 66.3181 65.5596 66.1666 65.8171 65.8636C66.0898 65.5455 66.2337 65.0001 66.2489 64.2274L66.4761 53.4558C66.0065 52.9255 65.3929 52.6604 64.6354 52.6604C64.6051 52.6604 64.59 52.615 64.59 52.5241C64.59 52.4332 64.6051 52.3877 64.6354 52.3877L65.4081 52.4104C65.5596 52.4256 65.7565 52.4332 65.9989 52.4332C66.2413 52.4332 66.4458 52.4256 66.6125 52.4104C66.7791 52.3953 66.9079 52.3877 66.9988 52.3877C67.2109 52.3877 67.3776 52.4635 67.4988 52.615C67.62 52.7513 67.8018 53.0695 68.0442 53.5694L73.1573 64.6137L78.2477 52.9558C78.3234 52.7892 78.4219 52.6528 78.5431 52.5468C78.6794 52.4407 78.8082 52.3877 78.9294 52.3877C78.99 52.3877 79.0885 52.3953 79.2248 52.4104C79.3612 52.4256 79.5506 52.4332 79.793 52.4332L80.8156 52.4104C80.9671 52.3953 81.2019 52.3877 81.5201 52.3877C81.5504 52.3877 81.5655 52.4332 81.5655 52.5241C81.5655 52.615 81.5504 52.6604 81.5201 52.6604C80.7323 52.6604 80.1717 52.7665 79.8384 52.9786C79.5203 53.1755 79.3688 53.577 79.3839 54.183L79.8157 64.7501C79.8308 65.2197 79.8839 65.5606 79.9748 65.7727C80.0808 65.9848 80.2702 66.1287 80.5429 66.2045C80.8307 66.2802 81.2701 66.3181 81.8609 66.3181Z" fill="black"/>
</svg>
