<svg width="90" height="90" viewBox="0 0 90 90" fill="none" xmlns="http://www.w3.org/2000/svg">
<g clip-path="url(#clip0_428_56)">
<path fill-rule="evenodd" clip-rule="evenodd" d="M56.45 38.949C56.616 38.403 56.45 38.001 55.655 38.001H53.03C52.362 38.001 52.054 38.348 51.887 38.731C51.887 38.731 50.552 41.927 48.661 44.003C48.049 44.605 47.771 44.796 47.437 44.796C47.27 44.796 47.019 44.605 47.019 44.058V38.949C47.019 38.293 46.835 38.001 46.279 38.001H42.151C41.734 38.001 41.483 38.305 41.483 38.594C41.483 39.215 42.429 39.359 42.526 41.107V44.905C42.526 45.738 42.373 45.889 42.039 45.889C41.149 45.889 38.984 42.678 37.699 39.004C37.45 38.289 37.198 38.001 36.527 38.001H33.9C33.15 38.001 33 38.348 33 38.731C33 39.413 33.89 42.801 37.145 47.282C39.315 50.342 42.37 52.001 45.153 52.001C46.822 52.001 47.028 51.633 47.028 50.998V48.685C47.028 47.948 47.186 47.801 47.715 47.801C48.105 47.801 48.772 47.993 50.33 49.468C52.11 51.217 52.403 52.001 53.405 52.001H56.03C56.78 52.001 57.156 51.633 56.94 50.905C56.702 50.181 55.852 49.13 54.725 47.883C54.113 47.173 53.195 46.408 52.916 46.025C52.527 45.534 52.638 45.315 52.916 44.878C52.916 44.878 56.116 40.452 56.449 38.949H56.45Z" fill="#ADCEC8"/>
</g>
<rect x="0.5" y="0.5" width="89" height="89" rx="44.5" stroke="#ADCEC8"/>
<defs>
<clipPath id="clip0_428_56">
<rect width="24" height="24" fill="white" transform="translate(33 33)"/>
</clipPath>
</defs>
</svg>
