<svg width="100" height="100" viewBox="0 0 100 100" fill="none" xmlns="http://www.w3.org/2000/svg">
<path fill-rule="evenodd" clip-rule="evenodd" d="M0.779793 48.1096L48.1096 0.779793C49.1494 -0.259931 50.8506 -0.259931 51.8904 0.779793L99.2202 48.1096C100.26 49.1494 100.26 50.8506 99.2202 51.8904L51.8904 99.2202C50.8506 100.26 49.1494 100.26 48.1096 99.2202L0.779793 51.8904C-0.259931 50.8506 -0.259931 49.1494 0.779793 48.1096ZM2.90458 46.6191L49.9126 2.78345C50.8997 1.86295 52.4605 1.91746 53.3809 2.90455L97.2166 49.9126C98.1371 50.8997 98.0826 52.4604 97.0955 53.3809L50.0875 97.2166C49.1004 98.137 47.5396 98.0826 46.6191 97.0954L2.78347 50.0874C1.86301 49.1004 1.91749 47.5396 2.90458 46.6191Z" fill="white"/>
<path d="M33.9572 48.536C34.0027 48.536 34.0254 48.5814 34.0254 48.6723C34.0254 48.7632 34.0027 48.8087 33.9572 48.8087C33.4876 48.8087 33.1164 48.8011 32.8437 48.7859L31.3211 48.7632L29.9122 48.7859C29.6849 48.8011 29.3668 48.8087 28.9577 48.8087C28.9274 48.8087 28.9123 48.7632 28.9123 48.6723C28.9123 48.5814 28.9274 48.536 28.9577 48.536C29.488 48.536 29.8743 48.4981 30.1167 48.4223C30.3742 48.3314 30.5409 48.1799 30.6166 47.9678C30.7075 47.7557 30.7378 47.4224 30.7075 46.9679L30.3212 36.4008L25.0036 48.6496C24.9733 48.7102 24.9127 48.7405 24.8218 48.7405C24.746 48.7405 24.6778 48.7102 24.6172 48.6496L19.0724 36.4917L19.0496 36.4463L18.8678 46.4453C18.8527 47.2331 18.9815 47.7785 19.2542 48.0815C19.5269 48.3845 20.0344 48.536 20.7767 48.536C20.807 48.536 20.8222 48.5814 20.8222 48.6723C20.8222 48.7632 20.807 48.8087 20.7767 48.8087C20.3525 48.8087 20.0268 48.8011 19.7996 48.7859L18.5724 48.7632L17.4589 48.7859C17.2619 48.8011 16.9665 48.8087 16.5726 48.8087C16.5423 48.8087 16.5272 48.7632 16.5272 48.6723C16.5272 48.5814 16.5423 48.536 16.5726 48.536C17.2089 48.536 17.6558 48.3845 17.9134 48.0815C18.1861 47.7633 18.33 47.2179 18.3452 46.4453L18.5724 35.6736C18.1028 35.1434 17.4892 34.8783 16.7317 34.8783C16.7014 34.8783 16.6862 34.8328 16.6862 34.7419C16.6862 34.651 16.7014 34.6056 16.7317 34.6056L17.5043 34.6283C17.6558 34.6434 17.8528 34.651 18.0952 34.651C18.3376 34.651 18.5421 34.6434 18.7088 34.6283C18.8754 34.6131 19.0042 34.6056 19.0951 34.6056C19.3072 34.6056 19.4738 34.6813 19.595 34.8328C19.7162 34.9692 19.898 35.2873 20.1404 35.7873L25.2535 46.8316L30.3439 35.1737C30.4197 35.007 30.5182 34.8707 30.6394 34.7646C30.7757 34.6586 30.9045 34.6056 31.0257 34.6056C31.0863 34.6056 31.1848 34.6131 31.3211 34.6283C31.4575 34.6434 31.6468 34.651 31.8892 34.651L32.9119 34.6283C33.0634 34.6131 33.2982 34.6056 33.6163 34.6056C33.6466 34.6056 33.6618 34.651 33.6618 34.7419C33.6618 34.8328 33.6466 34.8783 33.6163 34.8783C32.8285 34.8783 32.268 34.9843 31.9347 35.1964C31.6165 35.3934 31.465 35.7948 31.4802 36.4008L31.912 46.9679C31.9271 47.4376 31.9801 47.7785 32.071 47.9906C32.1771 48.2027 32.3665 48.3466 32.6392 48.4223C32.927 48.4981 33.3664 48.536 33.9572 48.536ZM48.8893 48.536C48.9499 48.536 48.9802 48.5814 48.9802 48.6723C48.9802 48.7632 48.9499 48.8087 48.8893 48.8087C48.6166 48.8087 48.1772 48.7935 47.5712 48.7632C46.9955 48.7329 46.5713 48.7178 46.2986 48.7178C45.9805 48.7178 45.5639 48.7329 45.0488 48.7632C44.564 48.7935 44.2004 48.8087 43.958 48.8087C43.8974 48.8087 43.8671 48.7632 43.8671 48.6723C43.8671 48.5814 43.8974 48.536 43.958 48.536C44.5791 48.536 45.026 48.4829 45.2987 48.3769C45.5714 48.2557 45.7078 48.0587 45.7078 47.786C45.7078 47.5739 45.6245 47.2785 45.4578 46.8998L43.3217 42.2866H37.9131L36.3678 46.0135C36.1557 46.5286 36.0497 46.9528 36.0497 47.2861C36.0497 47.7254 36.2315 48.0436 36.5951 48.2405C36.9587 48.4375 37.5268 48.536 38.2994 48.536C38.3752 48.536 38.4131 48.5814 38.4131 48.6723C38.4131 48.7632 38.3752 48.8087 38.2994 48.8087C38.0267 48.8087 37.6328 48.7935 37.1177 48.7632C36.5421 48.7329 36.0421 48.7178 35.6179 48.7178C35.2392 48.7178 34.7922 48.7329 34.2771 48.7632C33.8226 48.7935 33.4515 48.8087 33.1636 48.8087C33.0879 48.8087 33.05 48.7632 33.05 48.6723C33.05 48.5814 33.0879 48.536 33.1636 48.536C33.5878 48.536 33.9438 48.4602 34.2317 48.3087C34.5347 48.1572 34.815 47.8845 35.0725 47.4906C35.3452 47.0967 35.6331 46.5362 35.9361 45.809L40.6856 34.3783C40.7159 34.3329 40.7613 34.3101 40.8219 34.3101C40.8977 34.3101 40.9431 34.3329 40.9583 34.3783L46.2305 45.6953C46.5789 46.468 46.8895 47.0588 47.1622 47.4679C47.4349 47.8618 47.7 48.1421 47.9576 48.3087C48.2303 48.4602 48.5408 48.536 48.8893 48.536ZM38.0949 41.8775H43.1171L40.4583 36.1736L38.0949 41.8775ZM58.3029 45.4908C58.3029 45.4454 58.3484 45.4302 58.4393 45.4454C58.5302 45.4454 58.5756 45.4681 58.5756 45.5135C58.4393 46.468 58.3711 47.4527 58.3711 48.4678C58.3711 48.589 58.3408 48.6799 58.2802 48.7405C58.2347 48.7859 58.1438 48.8087 58.0075 48.8087H48.6221C48.5918 48.8087 48.5766 48.7632 48.5766 48.6723C48.5766 48.5814 48.5918 48.536 48.6221 48.536C49.2129 48.536 49.6447 48.4981 49.9174 48.4223C50.2053 48.3466 50.3946 48.2027 50.4855 47.9906C50.5916 47.7633 50.6446 47.4224 50.6446 46.9679V36.4463C50.6446 35.9918 50.5916 35.6585 50.4855 35.4464C50.3946 35.2343 50.2053 35.0904 49.9174 35.0146C49.6447 34.9237 49.2129 34.8783 48.6221 34.8783C48.5918 34.8783 48.5766 34.8328 48.5766 34.7419C48.5766 34.651 48.5918 34.6056 48.6221 34.6056H57.6212C57.7575 34.6056 57.8257 34.6737 57.8257 34.8101L57.8711 37.5598C57.8711 37.6053 57.8257 37.628 57.7348 37.628C57.659 37.628 57.6212 37.6053 57.6212 37.5598C57.6212 36.7872 57.4166 36.1736 57.0076 35.7191C56.5985 35.2646 56.0607 35.0373 55.3941 35.0373H53.8261C53.2504 35.0373 52.8262 35.0752 52.5535 35.151C52.2808 35.2267 52.0914 35.3706 51.9854 35.5827C51.8945 35.7948 51.849 36.1281 51.849 36.5826V41.1958H54.8487C55.5456 41.1958 56.0304 41.0822 56.3031 40.8549C56.5758 40.6125 56.7122 40.2035 56.7122 39.6278C56.7122 39.5975 56.7576 39.5823 56.8485 39.5823C56.9394 39.5823 56.9849 39.5975 56.9849 39.6278L56.9621 41.423C56.9621 41.8624 56.9697 42.1881 56.9849 42.4002L57.0076 43.4683C57.0076 43.4986 56.9621 43.5137 56.8712 43.5137C56.7803 43.5137 56.7349 43.4986 56.7349 43.4683C56.7349 42.7865 56.591 42.3093 56.3031 42.0366C56.0153 41.7639 55.5077 41.6276 54.7805 41.6276H51.849V46.877C51.849 47.3164 51.8945 47.6421 51.9854 47.8542C52.0914 48.0512 52.2732 48.1875 52.5308 48.2633C52.8035 48.339 53.2352 48.3769 53.8261 48.3769H55.9168C56.5228 48.3769 57.0379 48.1118 57.4621 47.5815C57.9014 47.0513 58.1817 46.3544 58.3029 45.4908ZM61.5117 37.3553C61.5117 37.9613 61.6557 38.4839 61.9435 38.9233C62.2314 39.3626 62.5798 39.7338 62.9889 40.0368C63.4131 40.3247 63.9963 40.6883 64.7387 41.1276C65.5265 41.5973 66.1325 41.9912 66.5567 42.3093C66.996 42.6123 67.3672 43.0062 67.6702 43.491C67.9884 43.9758 68.1474 44.5591 68.1474 45.2408C68.1474 45.9529 67.9732 46.6043 67.6248 47.1952C67.2763 47.7709 66.7536 48.233 66.0567 48.5814C65.375 48.9147 64.5342 49.0814 63.5343 49.0814C63.004 49.0814 62.4965 49.0208 62.0117 48.8996C61.542 48.7935 61.0194 48.5966 60.4437 48.3087C60.3679 48.2633 60.3149 48.2102 60.2846 48.1496C60.2694 48.089 60.2543 47.9981 60.2391 47.8769L59.8983 44.9227V44.9C59.8983 44.8394 59.9361 44.8091 60.0119 44.8091C60.0876 44.7939 60.1331 44.8166 60.1482 44.8772C60.2997 45.9226 60.7012 46.8316 61.3527 47.6042C62.0041 48.3769 62.898 48.7632 64.0342 48.7632C64.8372 48.7632 65.5113 48.5435 66.0567 48.1042C66.6173 47.6648 66.8976 46.9755 66.8976 46.0362C66.8976 45.3545 66.7461 44.7712 66.4431 44.2864C66.1401 43.7864 65.7689 43.3774 65.3295 43.0592C64.9053 42.7259 64.3221 42.3396 63.5797 41.9003C62.8525 41.4761 62.2768 41.1049 61.8526 40.7867C61.4436 40.4686 61.0875 40.0747 60.7845 39.605C60.4967 39.1202 60.3528 38.5445 60.3528 37.8779C60.3528 37.1205 60.5421 36.4766 60.9209 35.9463C61.3148 35.4161 61.8223 35.0222 62.4435 34.7646C63.0646 34.4919 63.7312 34.3556 64.4433 34.3556C65.2765 34.3556 66.1401 34.5374 67.0339 34.901C67.2612 34.9919 67.3748 35.1207 67.3748 35.2873L67.5793 37.6962C67.5793 37.7568 67.5339 37.7871 67.443 37.7871C67.3672 37.7871 67.3218 37.7568 67.3066 37.6962C67.246 36.9084 66.9506 36.2039 66.4203 35.5827C65.8901 34.9616 65.1326 34.651 64.1478 34.651C63.2388 34.651 62.5722 34.9161 62.148 35.4464C61.7238 35.9766 61.5117 36.6129 61.5117 37.3553ZM72.1323 34.9919C71.1778 34.9919 70.4809 35.2191 70.0416 35.6736C69.6022 36.1281 69.3068 36.9387 69.1553 38.1052C69.1553 38.1355 69.1099 38.1506 69.019 38.1506C68.9281 38.1506 68.8826 38.1355 68.8826 38.1052C68.9432 37.6962 69.0114 37.0447 69.0871 36.1509C69.1629 35.2419 69.2008 34.5601 69.2008 34.1056C69.2008 34.0299 69.2462 33.992 69.3371 33.992C69.428 33.992 69.4735 34.0299 69.4735 34.1056C69.4735 34.4389 69.8749 34.6056 70.6779 34.6056C71.9808 34.651 73.5034 34.6737 75.2456 34.6737C76.1395 34.6737 77.0863 34.6586 78.0862 34.6283L79.6315 34.6056C80.1769 34.6056 80.5784 34.5677 80.8359 34.4919C81.0935 34.4162 81.2601 34.2647 81.3359 34.0374C81.351 33.9768 81.3965 33.9465 81.4722 33.9465C81.548 33.9465 81.5859 33.9768 81.5859 34.0374C81.5404 34.4616 81.495 35.1131 81.4495 35.9918C81.4041 36.8553 81.3813 37.5598 81.3813 38.1052C81.3813 38.1355 81.3359 38.1506 81.245 38.1506C81.1541 38.1506 81.1086 38.1355 81.1086 38.1052C81.1086 37.3023 81.0253 36.6811 80.8587 36.2418C80.692 35.8024 80.4117 35.4843 80.0178 35.2873C79.624 35.0904 79.071 34.9919 78.3589 34.9919C77.5711 34.9919 77.0182 35.0222 76.7 35.0828C76.3819 35.1282 76.1622 35.2494 76.041 35.4464C75.9349 35.6433 75.8819 35.9918 75.8819 36.4917V46.9679C75.8819 47.4376 75.9349 47.7785 76.041 47.9906C76.147 48.2027 76.3591 48.3466 76.6773 48.4223C76.9954 48.4981 77.4954 48.536 78.1771 48.536C78.2074 48.536 78.2226 48.5814 78.2226 48.6723C78.2226 48.7632 78.2074 48.8087 78.1771 48.8087C77.6772 48.8087 77.2833 48.8011 76.9954 48.7859L75.2456 48.7632L73.5867 48.7859C73.2837 48.8011 72.8671 48.8087 72.3368 48.8087C72.3065 48.8087 72.2914 48.7632 72.2914 48.6723C72.2914 48.5814 72.3065 48.536 72.3368 48.536C73.0186 48.536 73.5185 48.4981 73.8367 48.4223C74.1548 48.3466 74.3669 48.2027 74.473 47.9906C74.5942 47.7633 74.6548 47.4224 74.6548 46.9679V36.4463C74.6548 35.9463 74.5942 35.6055 74.473 35.4237C74.3518 35.2267 74.1321 35.1055 73.8139 35.0601C73.5109 35.0146 72.9504 34.9919 72.1323 34.9919Z" fill="white"/>
<path d="M34.0852 66.3182C34.1307 66.3182 34.1534 66.3636 34.1534 66.4545C34.1534 66.5454 34.1307 66.5909 34.0852 66.5909H31.4491C31.0704 66.5909 30.3356 65.9622 29.2448 64.7047C28.1692 63.4321 26.8814 61.6899 25.3816 59.478C24.8513 59.584 24.3741 59.637 23.9499 59.637C23.8893 59.637 23.5636 59.6143 22.9727 59.5689V64.7502C22.9727 65.2198 23.0182 65.5607 23.1091 65.7728C23.2151 65.9849 23.4045 66.1288 23.6772 66.2046C23.9499 66.2803 24.3892 66.3182 24.9952 66.3182C25.0407 66.3182 25.0634 66.3636 25.0634 66.4545C25.0634 66.5454 25.0407 66.5909 24.9952 66.5909C24.5407 66.5909 24.1771 66.5833 23.9044 66.5682L22.3591 66.5454L20.8593 66.5682C20.5866 66.5833 20.2078 66.5909 19.723 66.5909C19.6927 66.5909 19.6776 66.5454 19.6776 66.4545C19.6776 66.3636 19.6927 66.3182 19.723 66.3182C20.329 66.3182 20.7684 66.2803 21.0411 66.2046C21.3289 66.1288 21.5259 65.9849 21.6319 65.7728C21.738 65.5455 21.791 65.2047 21.791 64.7502V54.2285C21.791 53.774 21.738 53.4407 21.6319 53.2286C21.541 53.0165 21.3517 52.8726 21.0638 52.7968C20.7911 52.7059 20.3593 52.6605 19.7685 52.6605C19.723 52.6605 19.7003 52.615 19.7003 52.5241C19.7003 52.4332 19.723 52.3878 19.7685 52.3878L20.8593 52.4105C21.4653 52.4408 21.9652 52.456 22.3591 52.456C22.6924 52.456 23.003 52.4484 23.2909 52.4332C23.5939 52.4181 23.8514 52.4029 24.0635 52.3878C24.6089 52.3423 25.0937 52.3196 25.5179 52.3196C26.6542 52.3196 27.5329 52.5999 28.154 53.1604C28.7903 53.7058 29.1085 54.433 29.1085 55.342C29.1085 56.145 28.8661 56.8797 28.3813 57.5463C27.8965 58.1978 27.2526 58.7129 26.4496 59.0916C27.7525 60.9399 28.8433 62.3792 29.722 63.4094C30.6007 64.4396 31.3809 65.1819 32.0627 65.6364C32.7444 66.0909 33.4186 66.3182 34.0852 66.3182ZM22.9727 59.0462C23.3969 59.0916 23.8514 59.1144 24.3362 59.1144C25.5937 59.1144 26.4875 58.8568 27.0178 58.3417C27.5632 57.8115 27.8359 57.0161 27.8359 55.9556C27.8359 54.7891 27.548 53.9407 26.9723 53.4104C26.4118 52.8802 25.5937 52.615 24.518 52.615C23.9423 52.615 23.5408 52.7211 23.3136 52.9332C23.0863 53.1453 22.9727 53.5922 22.9727 54.274V59.0462ZM39.7691 66.8636C38.3602 66.8636 37.1027 66.5379 35.9968 65.8864C34.906 65.2198 34.0576 64.326 33.4516 63.2049C32.8607 62.0686 32.5653 60.8339 32.5653 59.5007C32.5653 57.9402 32.9592 56.607 33.747 55.5011C34.5348 54.38 35.5423 53.5392 36.7694 52.9786C38.0117 52.4181 39.2767 52.1378 40.5645 52.1378C42.0037 52.1378 43.2688 52.4787 44.3596 53.1604C45.4504 53.827 46.2836 54.7133 46.8593 55.8193C47.4502 56.9252 47.7456 58.0993 47.7456 59.3416C47.7456 60.7203 47.382 61.9853 46.6548 63.1367C45.9276 64.2881 44.9504 65.1971 43.7233 65.8637C42.5113 66.5303 41.1932 66.8636 39.7691 66.8636ZM40.5872 66.4091C41.6629 66.4091 42.6325 66.1591 43.496 65.6592C44.3596 65.1592 45.0413 64.4244 45.5413 63.4548C46.0412 62.4852 46.2912 61.3263 46.2912 59.9779C46.2912 58.5538 46.0109 57.2888 45.4504 56.1829C44.905 55.0618 44.1247 54.1906 43.1097 53.5695C42.1098 52.9483 40.9432 52.6378 39.61 52.6378C37.8526 52.6378 36.4816 53.1832 35.4968 54.274C34.5121 55.3648 34.0197 56.8494 34.0197 58.728C34.0197 60.137 34.2924 61.4323 34.8378 62.614C35.3984 63.7806 36.1786 64.7047 37.1785 65.3865C38.1784 66.0682 39.3146 66.4091 40.5872 66.4091ZM55.8044 66.8636C54.3955 66.8636 53.138 66.5379 52.0321 65.8864C50.9413 65.2198 50.0929 64.326 49.4869 63.2049C48.896 62.0686 48.6006 60.8339 48.6006 59.5007C48.6006 57.9402 48.9945 56.607 49.7823 55.5011C50.5701 54.38 51.5776 53.5392 52.8047 52.9786C54.047 52.4181 55.312 52.1378 56.5998 52.1378C58.039 52.1378 59.3041 52.4787 60.3949 53.1604C61.4857 53.827 62.3189 54.7133 62.8946 55.8193C63.4854 56.9252 63.7809 58.0993 63.7809 59.3416C63.7809 60.7203 63.4173 61.9853 62.6901 63.1367C61.9629 64.2881 60.9857 65.1971 59.7586 65.8637C58.5466 66.5303 57.2285 66.8636 55.8044 66.8636ZM56.6225 66.4091C57.6982 66.4091 58.6678 66.1591 59.5313 65.6592C60.3949 65.1592 61.0766 64.4244 61.5766 63.4548C62.0765 62.4852 62.3265 61.3263 62.3265 59.9779C62.3265 58.5538 62.0462 57.2888 61.4857 56.1829C60.9403 55.0618 60.16 54.1906 59.145 53.5695C58.1451 52.9483 56.9785 52.6378 55.6453 52.6378C53.8879 52.6378 52.5169 53.1832 51.5321 54.274C50.5474 55.3648 50.055 56.8494 50.055 58.728C50.055 60.137 50.3277 61.4323 50.8731 62.614C51.4336 63.7806 52.2139 64.7047 53.2138 65.3865C54.2137 66.0682 55.3499 66.4091 56.6225 66.4091ZM81.8614 66.3182C81.9069 66.3182 81.9296 66.3636 81.9296 66.4545C81.9296 66.5454 81.9069 66.5909 81.8614 66.5909C81.3918 66.5909 81.0206 66.5833 80.7479 66.5682L79.2253 66.5454L77.8164 66.5682C77.5891 66.5833 77.271 66.5909 76.8619 66.5909C76.8316 66.5909 76.8165 66.5454 76.8165 66.4545C76.8165 66.3636 76.8316 66.3182 76.8619 66.3182C77.3922 66.3182 77.7785 66.2803 78.0209 66.2046C78.2784 66.1137 78.4451 65.9622 78.5208 65.7501C78.6117 65.538 78.642 65.2047 78.6117 64.7502L78.2254 54.1831L72.9078 66.4318C72.8775 66.4924 72.8169 66.5227 72.726 66.5227C72.6502 66.5227 72.5821 66.4924 72.5215 66.4318L66.9766 54.274L66.9538 54.2285L66.772 64.2275C66.7569 65.0153 66.8857 65.5607 67.1584 65.8637C67.4311 66.1667 67.9386 66.3182 68.6809 66.3182C68.7112 66.3182 68.7264 66.3636 68.7264 66.4545C68.7264 66.5454 68.7112 66.5909 68.6809 66.5909C68.2567 66.5909 67.931 66.5833 67.7038 66.5682L66.4766 66.5454L65.3631 66.5682C65.1661 66.5833 64.8707 66.5909 64.4768 66.5909C64.4465 66.5909 64.4314 66.5454 64.4314 66.4545C64.4314 66.3636 64.4465 66.3182 64.4768 66.3182C65.1131 66.3182 65.56 66.1667 65.8176 65.8637C66.0903 65.5455 66.2342 65.0001 66.2494 64.2275L66.4766 53.4559C66.007 52.9256 65.3934 52.6605 64.6359 52.6605C64.6056 52.6605 64.5905 52.615 64.5905 52.5241C64.5905 52.4332 64.6056 52.3878 64.6359 52.3878L65.4085 52.4105C65.56 52.4257 65.757 52.4332 65.9994 52.4332C66.2418 52.4332 66.4463 52.4257 66.613 52.4105C66.7796 52.3954 66.9084 52.3878 66.9993 52.3878C67.2114 52.3878 67.378 52.4635 67.4992 52.615C67.6204 52.7514 67.8022 53.0695 68.0446 53.5695L73.1578 64.6138L78.2481 52.9559C78.3239 52.7893 78.4224 52.6529 78.5436 52.5469C78.6799 52.4408 78.8087 52.3878 78.9299 52.3878C78.9905 52.3878 79.089 52.3954 79.2253 52.4105C79.3617 52.4257 79.551 52.4332 79.7934 52.4332L80.8161 52.4105C80.9676 52.3954 81.2024 52.3878 81.5205 52.3878C81.5508 52.3878 81.566 52.4332 81.566 52.5241C81.566 52.615 81.5508 52.6605 81.5205 52.6605C80.7327 52.6605 80.1722 52.7665 79.8389 52.9786C79.5207 53.1756 79.3692 53.5771 79.3844 54.1831L79.8162 64.7502C79.8313 65.2198 79.8843 65.5607 79.9752 65.7728C80.0813 65.9849 80.2707 66.1288 80.5434 66.2046C80.8312 66.2803 81.2706 66.3182 81.8614 66.3182Z" fill="white"/>
</svg>
